<?xml version="1.0" standalone="no"?>
<!DOCTYPE svg PUBLIC "-//W3C//DTD SVG 20010904//EN"
 "http://www.w3.org/TR/2001/REC-SVG-20010904/DTD/svg10.dtd">
<svg version="1.0" xmlns="http://www.w3.org/2000/svg"
 width="350.000000pt" height="283.000000pt" viewBox="0 0 350.000000 283.000000"
 preserveAspectRatio="xMidYMid meet">

<g transform="translate(0.000000,283.000000) scale(0.100000,-0.100000)"
fill="#000000" stroke="none">
<path d="M1187 2536 c-46 -17 -64 -32 -83 -67 -12 -24 -14 -131 -14 -662 l0
-633 30 -29 30 -29 38 22 37 21 5 618 5 618 445 0 445 0 3 -237 2 -238 198 -2
197 -3 0 -565 0 -565 -136 -3 -135 -3 -70 -70 -69 -70 232 3 c216 3 233 4 260
24 65 48 63 24 63 710 l0 620 -279 277 -279 277 -443 0 c-345 -1 -452 -4 -482
-14z"/>
<path d="M1383 1693 c-18 -7 -16 -40 3 -47 9 -3 27 -6 40 -6 24 0 24 -2 24
-85 0 -80 -1 -86 -23 -94 -13 -5 -35 -7 -50 -4 -21 4 -27 11 -27 32 0 15 -7
36 -15 47 -15 19 -15 19 -30 0 -8 -11 -15 -39 -15 -62 l0 -43 54 -17 c61 -19
93 -14 132 20 26 21 28 30 32 115 3 61 8 91 16 91 7 0 21 7 32 15 19 15 19 15
0 30 -19 15 -143 21 -173 8z"/>
<path d="M1645 1689 c-31 -18 -45 -40 -45 -73 1 -52 32 -78 107 -91 73 -12 81
-55 13 -70 -32 -7 -65 7 -91 39 -24 29 -41 10 -37 -40 2 -31 7 -39 23 -40 11
0 37 -4 58 -9 75 -15 147 25 147 83 0 35 -49 78 -97 87 -57 9 -81 28 -67 52 6
10 25 19 42 21 30 3 39 -3 66 -43 12 -16 16 -17 30 -6 19 16 21 76 4 87 -21
13 -132 15 -153 3z"/>
<path d="M1923 1680 c-49 -30 -69 -79 -65 -163 3 -41 68 -106 113 -113 80 -13
153 57 153 145 -1 86 -59 151 -134 151 -19 0 -49 -9 -67 -20z"/>
<path d="M2143 1693 c-20 -8 -15 -40 7 -46 18 -5 20 -14 20 -92 0 -70 -3 -90
-17 -100 -10 -7 -14 -19 -10 -29 6 -14 18 -16 64 -14 50 3 58 6 58 23 0 13 -8
21 -22 23 -21 3 -23 9 -23 70 l0 66 60 -92 c49 -76 64 -92 85 -92 l25 0 0 114
c0 89 3 116 15 126 20 16 19 36 -1 44 -20 8 -78 8 -98 0 -25 -10 -19 -41 9
-48 23 -6 25 -11 25 -66 0 -33 -2 -60 -4 -60 -2 0 -30 41 -61 90 -52 83 -59
90 -88 89 -18 0 -38 -3 -44 -6z"/>
<path d="M1332 1047 c-30 -31 -28 -78 3 -115 30 -36 32 -62 5 -62 -27 0 -27
-36 1 -43 17 -5 20 -12 17 -54 -3 -46 -4 -48 -36 -51 -25 -3 -39 3 -62 27 -32
31 -41 65 -15 55 8 -4 15 -1 15 5 0 16 -38 88 -50 96 -6 4 -21 -18 -35 -50
-30 -67 -32 -85 -6 -78 13 3 21 -3 28 -24 14 -39 68 -89 133 -122 l55 -29 60
30 c71 36 110 70 136 120 13 25 24 35 34 32 21 -8 19 7 -10 71 -14 33 -29 54
-35 50 -6 -4 -22 -29 -36 -57 -25 -49 -25 -51 -5 -45 31 8 27 -19 -9 -54 -23
-24 -37 -30 -62 -27 -32 3 -33 5 -36 51 -3 42 0 49 17 54 28 7 28 43 1 43 -28
0 -26 31 5 60 33 31 34 88 2 118 -32 30 -87 29 -115 -1z m83 -57 c0 -18 -6
-26 -23 -28 -24 -4 -38 18 -28 44 3 9 15 14 28 12 17 -2 23 -10 23 -28z"/>
<path d="M882 907 l-112 -112 115 -115 115 -114 35 34 35 34 -75 76 c-41 41
-75 80 -75 85 0 6 34 44 75 85 l75 74 -32 33 c-18 18 -34 33 -38 33 -3 0 -56
-51 -118 -113z"/>
<path d="M1762 987 l-32 -33 75 -74 c41 -41 75 -79 75 -85 0 -5 -34 -44 -75
-85 l-75 -76 35 -34 35 -34 115 114 115 115 -112 112 c-62 62 -115 113 -118
113 -4 0 -20 -15 -38 -33z"/>
<path d="M2340 320 c0 -15 7 -20 25 -20 18 0 25 5 25 20 0 15 -7 20 -25 20
-18 0 -25 -5 -25 -20z"/>
<path d="M260 310 c0 -16 6 -20 30 -20 l31 0 -3 -62 c-3 -63 -3 -63 -35 -66
-28 -3 -32 0 -35 25 -2 20 -9 28 -23 28 -16 0 -21 -8 -23 -37 -3 -32 1 -39 27
-52 41 -22 73 -20 105 5 24 19 26 27 26 89 0 64 2 69 23 72 12 2 22 10 22 18
0 12 -16 16 -72 18 -68 3 -73 1 -73 -18z"/>
<path d="M1047 323 c-13 -12 -7 -33 8 -33 12 0 15 -14 15 -64 0 -48 -4 -65
-15 -70 -24 -9 -17 -35 11 -42 25 -6 92 0 101 10 13 12 -9 36 -32 36 -16 0
-25 6 -25 15 0 11 11 15 35 15 49 0 90 40 81 78 -11 45 -41 62 -110 62 -35 0
-66 -3 -69 -7z m111 -39 c25 -7 30 -39 6 -48 -37 -14 -54 -7 -54 24 0 31 7 34
48 24z"/>
<path d="M2057 324 c-11 -12 -8 -34 6 -34 6 0 28 -40 48 -88 47 -116 61 -117
110 -2 20 46 41 86 48 88 6 2 11 12 11 23 0 16 -7 19 -44 19 -48 0 -70 -17
-44 -34 15 -9 15 -13 1 -50 -23 -60 -27 -61 -50 -6 -18 41 -19 50 -6 50 8 0
13 7 11 18 -2 12 -14 18 -43 20 -23 2 -44 0 -48 -4z"/>
<path d="M447 267 c-13 -9 -18 -23 -15 -42 3 -30 12 -35 83 -51 28 -6 29 -7 8
-14 -24 -10 -63 -2 -63 11 0 5 -9 9 -20 9 -15 0 -20 -7 -20 -29 0 -24 5 -29
31 -35 60 -12 89 -7 115 19 25 25 25 27 9 52 -13 19 -14 27 -5 33 6 4 10 18 8
31 -3 22 -9 24 -58 27 -35 2 -62 -2 -73 -11z m87 -40 c16 -12 14 -13 -18 -9
-20 2 -36 8 -36 13 0 13 34 11 54 -4z"/>
<path d="M645 255 c-31 -31 -34 -86 -5 -115 58 -58 160 -23 160 55 0 51 -36
85 -90 85 -30 0 -47 -6 -65 -25z m99 -31 c23 -22 20 -41 -9 -60 -23 -15 -27
-15 -50 0 -29 19 -31 33 -8 58 20 22 46 23 67 2z"/>
<path d="M826 265 c-3 -8 -1 -17 4 -20 14 -9 12 -72 -2 -95 -15 -23 -11 -28
28 -35 41 -8 63 8 47 35 -27 42 -5 101 32 86 18 -7 20 -67 3 -85 -11 -10 -9
-15 6 -27 25 -18 37 -18 61 0 14 10 17 17 8 27 -5 8 -13 34 -16 59 -3 24 -13
50 -22 57 -24 17 -142 16 -149 -2z"/>
<path d="M1271 271 c-8 -5 -11 -16 -8 -25 5 -13 15 -15 45 -10 22 3 42 2 45
-3 4 -6 -9 -10 -28 -11 -48 -2 -73 -17 -81 -49 -11 -44 23 -63 104 -59 37 2
70 4 75 5 10 2 9 41 -2 41 -4 0 -11 21 -14 47 -3 29 -12 52 -23 60 -20 15 -92
17 -113 4z m89 -96 c0 -9 -51 -25 -61 -19 -17 10 1 24 32 24 16 0 29 -2 29 -5z"/>
<path d="M1467 273 c-13 -13 -7 -32 13 -38 29 -9 29 -75 1 -75 -28 0 -37 -21
-16 -37 21 -15 112 -18 134 -4 23 15 5 41 -29 41 -25 0 -30 4 -30 24 0 30 38
56 73 49 19 -4 27 -1 27 9 0 34 -62 52 -88 26 -9 -9 -12 -9 -12 0 0 13 -62 17
-73 5z"/>
<path d="M1690 260 c-11 -11 -20 -24 -20 -30 0 -20 41 -50 68 -50 15 0 33 -4
40 -9 26 -16 -31 -21 -62 -6 -41 21 -46 19 -46 -14 0 -24 5 -29 31 -35 51 -10
83 -7 107 10 23 16 29 53 11 71 -8 8 -7 16 2 31 20 32 -3 52 -62 52 -36 0 -54
-5 -69 -20z m94 -33 c16 -12 14 -13 -18 -9 -20 2 -36 8 -36 13 0 13 34 11 54
-4z"/>
<path d="M1889 251 c-17 -18 -29 -40 -29 -56 0 -42 50 -85 99 -85 22 0 51 4
65 10 27 10 35 35 14 43 -10 4 -10 6 0 6 26 2 7 72 -27 98 -9 7 -33 13 -54 13
-29 0 -45 -7 -68 -29z m91 -21 c11 -7 4 -10 -25 -10 -29 0 -36 3 -25 10 8 5
20 10 25 10 6 0 17 -5 25 -10z m11 -70 c-19 -5 -44 -4 -55 0 -15 6 -5 9 34 8
50 0 52 -1 21 -8z"/>
<path d="M2305 270 c-8 -13 13 -40 31 -40 9 0 14 -12 14 -34 0 -30 -3 -35 -27
-38 -17 -2 -29 -10 -31 -21 -3 -15 6 -17 83 -17 77 0 86 2 83 17 -2 11 -14 19
-31 21 -26 3 -27 5 -27 63 l0 59 -44 0 c-25 0 -48 -5 -51 -10z"/>
<path d="M2527 269 c-11 -6 -25 -25 -32 -42 -33 -79 54 -143 148 -108 21 8 25
16 26 61 0 42 -4 56 -24 76 -26 26 -84 33 -118 13z m83 -39 c11 -7 3 -10 -30
-10 -33 0 -41 3 -30 10 8 5 22 10 30 10 8 0 22 -5 30 -10z m1 -70 c-19 -5 -44
-4 -55 0 -15 6 -5 9 34 8 50 0 52 -1 21 -8z"/>
<path d="M2684 265 c-3 -8 1 -22 10 -30 9 -9 16 -22 16 -28 0 -7 5 -29 11 -49
12 -44 41 -51 60 -16 l12 22 8 -23 c6 -16 15 -21 31 -19 17 2 25 14 36 58 7
30 18 58 24 61 6 4 8 14 5 23 -8 21 -75 22 -83 1 -4 -8 -14 -15 -24 -15 -11 0
-22 -11 -28 -27 -9 -23 -11 -24 -11 -7 -1 11 4 25 10 31 18 18 1 33 -37 33
-21 0 -37 -6 -40 -15z m146 -45 c0 -11 -2 -20 -4 -20 -2 0 -6 9 -9 20 -3 11
-1 20 4 20 5 0 9 -9 9 -20z"/>
<path d="M2929 251 c-17 -18 -29 -40 -29 -56 0 -42 50 -85 99 -85 22 0 51 4
65 10 27 10 35 35 14 43 -10 4 -10 6 0 6 28 2 0 92 -33 105 -40 15 -87 6 -116
-23z m96 -21 c4 -6 -9 -10 -32 -10 -28 0 -34 3 -23 10 20 13 47 13 55 0z m6
-70 c-19 -5 -44 -4 -55 0 -15 6 -5 9 34 8 50 0 52 -1 21 -8z"/>
<path d="M3130 266 c-9 -12 -7 -17 9 -28 26 -16 30 -78 6 -78 -21 0 -31 -30
-14 -41 19 -12 106 -11 129 1 29 16 13 40 -26 40 -26 0 -34 4 -34 18 0 28 37
56 70 54 35 -3 46 11 24 32 -18 18 -47 21 -75 6 -13 -7 -19 -7 -19 0 0 15 -56
12 -70 -4z"/>
</g>
</svg>
